# xmcd CD database file
#
# Track frame offsets:
#	150
#	67700
#	102874
#	148308
#	184725
#	236709
#	251876
#
# Disc length: 3814 seconds
#
# Revision: 0
# Processed by: cddbd v1.5.2PL0 Copyright (c) Steve Scherf et al.
# Submitted via: CDex 1.51
#
DISCID=620ee407
DTITLE=Masada - Live In Italy - 8/31/94 Disc 2
DYEAR=1900
DGENRE=Jazz
TTITLE0=Piram
TTITLE1=Abidan
TTITLE2=Tzofeh
TTITLE3=Ashnah
TTITLE4=Peliyot
TTITLE5=Achshaph
TTITLE6=Sheloshim
EXTD=
EXTT0=
EXTT1=
EXTT2=
EXTT3=
EXTT4=
EXTT5=
EXTT6=
PLAYORDER=
